<svg xmlns="http://www.w3.org/2000/svg" viewBox="0 0 1100 900" width="1100" height="900" preserveAspectRatio="xMidYMid slice" aria-hidden="true"><defs><filter id="g11" x="0" y="0" width="100%" height="100%" color-interpolation-filters="sRGB">
<feTurbulence type="fractalNoise" baseFrequency="1.8" numOctaves="4" stitchTiles="stitch" seed="11" result="n"/>
<feColorMatrix in="n" type="saturate" values="0" result="g"/>
<feComponentTransfer in="g" result="a"><feFuncA type="linear" slope="0.6" intercept="0"/></feComponentTransfer>
</filter></defs><rect width="1100" height="900" fill="#181717"/><polygon points="279.0,826.5 272.0,829.2 265.5,824.2 273.9,820.2" fill="rgba(107,38,26,0.3690800438076258)"/><polygon points="540.3,205.1 531.3,214.8 517.4,207.7 522.6,198.3 536.3,198.1" fill="rgba(107,38,26,0.36555351888760923)"/><polygon points="847.6,520.1 842.0,525.6 834.4,522.0 832.7,515.1 839.5,512.2 845.3,510.3" fill="rgba(224,69,42,0.3585246501863003)"/><polygon points="329.3,131.6 324.5,134.6 318.7,132.3 320.4,127.5 327.7,125.6" fill="rgba(224,69,42,0.2648777895048261)"/><polygon points="486.0,115.1 481.7,117.3 478.7,113.1 481.8,111.2" fill="rgba(107,38,26,0.5466811755113304)"/><polygon points="301.0,898.6 288.7,902.4 274.9,891.8 291.6,886.4" fill="rgba(107,38,26,0.5439509088546038)"/><polygon points="21.5,879.4 10.8,885.2 4.9,875.7 14.9,867.3" fill="rgba(76,76,75,0.5478537490963936)"/><polygon points="92.5,26.5 90.3,29.2 85.7,28.2 88.0,24.2 91.4,22.8" fill="rgba(224,69,42,0.5346558211743832)"/><polygon points="647.8,455.4 635.0,464.0 629.5,451.8 640.2,444.1" fill="rgba(76,76,75,0.5359451288729906)"/><polygon points="969.5,777.3 955.7,780.1 947.1,771.6 959.7,762.1" fill="rgba(150,149,147,0.17957327267155052)"/><polygon points="880.8,802.6 870.7,806.1 859.6,805.7 859.2,801.0 867.3,794.5 874.2,796.6" fill="rgba(76,76,75,0.5480872576497495)"/><polygon points="210.0,317.3 205.3,319.2 202.9,315.3 206.0,312.5" fill="rgba(107,38,26,0.4944544219784439)"/><polygon points="810.4,631.4 806.0,635.0 798.3,632.4 800.0,628.0 802.7,626.3 806.7,626.8" fill="rgba(224,69,42,0.46589921725913885)"/><polygon points="520.4,443.0 516.8,449.4 508.4,444.3 509.6,437.4 517.7,434.1" fill="rgba(150,149,147,0.28714842669665813)"/><polygon points="542.9,279.4 535.1,288.4 525.4,285.8 522.4,278.6 527.4,269.4 538.0,272.1" fill="rgba(107,38,26,0.32576107665896414)"/><polygon points="887.4,872.4 877.7,878.4 871.1,874.8 873.5,863.2 881.4,862.6" fill="rgba(76,76,75,0.3436351364850998)"/><polygon points="18.7,265.0 13.4,270.0 1.6,269.2 -4.1,258.8 7.0,250.7 18.8,256.7" fill="rgba(76,76,75,0.3208631889335811)"/><polygon points="625.3,123.0 610.2,125.5 598.2,116.7 614.0,110.7" fill="rgba(150,149,147,0.33780555756762626)"/><polygon points="681.6,74.5 671.4,80.9 663.6,82.6 662.1,72.8 669.5,66.8 677.2,65.8" fill="rgba(224,69,42,0.5559738673642278)"/><polygon points="788.9,698.4 777.8,703.8 767.8,704.0 766.3,695.7 769.2,688.7 786.0,690.4" fill="rgba(150,149,147,0.40633313277736305)"/><polygon points="206.9,366.8 203.3,367.9 200.5,365.2 204.4,364.2" fill="rgba(224,69,42,0.358373041767627)"/><polygon points="899.5,775.0 891.4,778.3 886.4,774.5 894.9,771.8" fill="rgba(107,38,26,0.40038692517206076)"/><polygon points="301.8,156.6 293.9,157.3 290.8,153.0 297.6,148.7" fill="rgba(224,69,42,0.36373042142018674)"/><polygon points="474.0,219.1 469.9,224.8 459.4,221.8 460.5,211.3 472.6,213.3" fill="rgba(107,38,26,0.31849271137267354)"/><polygon points="1032.6,348.9 1031.4,358.4 1017.4,350.8 1012.7,343.4 1023.5,337.0 1032.5,337.2" fill="rgba(224,69,42,0.3542224456928671)"/><polygon points="859.3,582.1 854.4,594.3 844.8,587.3 843.1,580.1 848.1,576.0 857.7,576.7" fill="rgba(224,69,42,0.5174279001913965)"/><polygon points="635.8,62.7 621.4,67.1 617.4,56.7 631.2,50.4" fill="rgba(76,76,75,0.16446199057623745)"/><polygon points="65.0,428.0 60.3,430.2 55.1,428.7 54.7,424.5 57.3,420.8 62.1,422.5" fill="rgba(107,38,26,0.2872958434186876)"/><polygon points="971.3,236.8 962.4,240.2 958.2,234.3 965.0,231.1" fill="rgba(76,76,75,0.22700927549973132)"/><polygon points="136.1,559.8 130.1,566.5 123.5,561.4 120.5,553.2 130.9,555.2" fill="rgba(150,149,147,0.401856100037694)"/><polygon points="166.4,20.3 160.7,27.5 154.0,21.6 149.6,13.7 158.6,8.0 167.3,13.7" fill="rgba(76,76,75,0.5231921749562025)"/><polygon points="369.9,235.6 368.0,238.4 360.3,238.6 357.9,232.4 363.2,229.4 370.7,231.5" fill="rgba(76,76,75,0.17134294038638473)"/><polygon points="103.9,160.2 98.1,161.8 96.1,158.0 100.0,157.0" fill="rgba(150,149,147,0.46658993329852827)"/><polygon points="510.2,685.5 492.3,694.1 486.8,684.0 500.0,673.8" fill="rgba(150,149,147,0.41984424734488135)"/><polygon points="509.3,607.2 503.0,612.8 498.4,607.1 500.9,601.7 509.0,599.0" fill="rgba(76,76,75,0.41552983069792393)"/><polygon points="643.6,211.2 640.7,213.6 638.1,210.9 642.9,208.8" fill="rgba(76,76,75,0.19986102966591718)"/><polygon points="149.6,778.2 141.0,784.7 131.0,781.5 128.8,776.3 135.8,767.5 149.5,769.2" fill="rgba(107,38,26,0.44202841887250544)"/><polygon points="1035.8,111.5 1032.0,115.4 1020.3,110.6 1022.8,103.0 1036.1,103.2" fill="rgba(76,76,75,0.33747587747871877)"/><polygon points="423.7,679.7 416.3,682.3 407.2,681.9 411.1,670.6 418.6,673.3" fill="rgba(150,149,147,0.5596220323257148)"/><polygon points="72.9,817.4 63.9,824.4 54.0,814.1 57.0,806.5 68.1,808.2" fill="rgba(224,69,42,0.20569521835073828)"/><polygon points="815.4,486.2 813.4,488.3 810.1,486.8 810.8,484.0 814.0,482.7" fill="rgba(224,69,42,0.19699794998392464)"/><polygon points="743.7,674.0 739.2,675.6 735.7,672.6 740.5,670.4" fill="rgba(150,149,147,0.31319284386932855)"/><polygon points="240.0,395.2 234.0,397.7 229.5,397.8 232.2,392.9 235.8,392.5" fill="rgba(76,76,75,0.41076667070388795)"/><polygon points="479.4,605.5 472.9,611.9 465.6,601.2 477.3,600.3" fill="rgba(76,76,75,0.4275557058304549)"/><polygon points="46.5,655.5 32.9,664.6 28.6,653.8 39.9,648.9" fill="rgba(107,38,26,0.43160695223137735)"/><polygon points="834.3,155.7 827.4,158.8 820.9,153.3 829.9,150.6" fill="rgba(150,149,147,0.32023820079863075)"/><polygon points="757.2,418.9 756.6,420.8 752.2,419.8 751.8,417.3 753.7,416.1 756.1,416.1" fill="rgba(76,76,75,0.30523961981758474)"/><polygon points="553.0,484.4 547.7,487.0 541.0,485.0 543.5,479.6 549.6,479.6" fill="rgba(150,149,147,0.4641562122292817)"/><polygon points="391.0,127.2 385.0,130.6 379.6,129.7 380.0,124.9 384.2,123.0 388.1,122.0" fill="rgba(76,76,75,0.33621657084673645)"/><polygon points="877.8,483.5 859.6,490.7 854.2,478.7 868.5,470.4" fill="rgba(150,149,147,0.29432872975245117)"/><polygon points="325.9,625.6 319.6,628.3 317.3,623.7 321.3,619.4" fill="rgba(224,69,42,0.3958952636830509)"/><polygon points="262.4,426.9 248.2,434.5 246.2,422.8 254.0,417.1" fill="rgba(76,76,75,0.20546739859506488)"/><polygon points="80.1,531.5 75.5,534.0 72.5,533.0 71.4,530.0 73.9,527.5 77.0,528.9" fill="rgba(76,76,75,0.2644929630123079)"/><polygon points="665.3,362.1 655.8,364.7 650.4,359.2 659.3,355.0" fill="rgba(224,69,42,0.49117742715403445)"/><polygon points="417.7,311.3 401.6,318.7 394.0,307.2 408.5,297.7" fill="rgba(107,38,26,0.33734138518571855)"/><polygon points="958.9,502.6 956.7,506.9 951.8,503.1 953.7,499.7 958.5,498.9" fill="rgba(224,69,42,0.4283042842894793)"/><polygon points="996.5,4.0 993.3,6.3 989.7,5.2 990.1,1.2 996.2,0.5" fill="rgba(107,38,26,0.5037350695952774)"/><polygon points="155.3,574.1 150.6,578.5 145.7,578.0 139.7,570.7 148.4,565.7 153.0,568.2" fill="rgba(107,38,26,0.5501311844587327)"/><polygon points="495.3,60.2 481.3,67.8 473.9,58.1 488.7,50.7" fill="rgba(224,69,42,0.3536856508255005)"/><polygon points="557.7,24.5 551.6,27.4 539.7,25.6 542.8,15.0 555.0,13.0" fill="rgba(107,38,26,0.40444250483065847)"/><polygon points="1017.1,85.1 1013.9,87.1 1010.4,86.4 1010.1,83.1 1013.6,82.8 1017.8,82.6" fill="rgba(224,69,42,0.4504813601635397)"/><polygon points="383.1,115.4 376.2,117.5 368.9,117.8 364.4,108.0 374.5,104.4 383.6,107.3" fill="rgba(224,69,42,0.39935031713917857)"/><polygon points="867.7,796.4 860.3,802.4 844.9,800.0 845.4,787.3 862.4,786.3" fill="rgba(224,69,42,0.4655171733722091)"/><polygon points="1048.5,332.7 1043.9,334.4 1039.0,335.0 1037.9,330.5 1041.1,326.6 1047.0,326.8" fill="rgba(76,76,75,0.23285874923691152)"/><polygon points="465.9,754.2 455.8,762.0 445.8,751.0 463.7,741.6" fill="rgba(224,69,42,0.4611303676292301)"/><polygon points="271.5,296.1 266.4,299.5 261.7,296.7 261.4,291.8 267.7,292.0" fill="rgba(224,69,42,0.35929227437824013)"/><polygon points="145.4,302.2 138.4,304.9 134.2,303.9 135.0,298.8 142.1,297.3" fill="rgba(107,38,26,0.2243241735175252)"/><polygon points="186.4,662.7 183.4,665.6 178.0,663.2 176.2,660.6 180.6,657.0 184.9,655.8" fill="rgba(107,38,26,0.26502605391666295)"/><polygon points="91.2,881.6 89.9,882.9 87.7,882.8 86.5,880.8 89.0,879.3 92.5,879.3" fill="rgba(150,149,147,0.1661178732663393)"/><polygon points="411.7,301.1 402.9,306.9 388.0,304.5 396.4,296.3 404.6,292.0" fill="rgba(76,76,75,0.5391360391303898)"/><polygon points="601.6,682.2 595.8,686.7 588.3,681.5 598.4,675.9" fill="rgba(150,149,147,0.16189030151814224)"/><polygon points="290.4,220.4 287.0,222.4 284.6,221.1 285.9,218.5 288.6,217.7" fill="rgba(76,76,75,0.24221540320664645)"/><polygon points="894.8,13.2 881.3,19.3 874.6,8.6 887.5,5.1" fill="rgba(76,76,75,0.4385249367356301)"/><polygon points="905.2,591.9 896.1,597.9 890.5,589.6 900.4,584.7" fill="rgba(224,69,42,0.37682782471179965)"/><polygon points="249.3,214.0 240.9,216.1 238.0,210.6 244.6,207.7" fill="rgba(76,76,75,0.4046284635923803)"/><polygon points="304.3,286.4 302.8,294.6 289.6,290.5 287.4,283.2 297.4,279.7 303.0,281.8" fill="rgba(150,149,147,0.3307976838573814)"/><polygon points="910.3,293.2 907.2,295.4 905.0,293.9 906.2,291.0 908.2,291.8" fill="rgba(107,38,26,0.22373840691521762)"/><polygon points="1074.4,194.8 1063.2,197.4 1055.2,192.6 1058.9,187.4 1067.4,186.2" fill="rgba(107,38,26,0.4794935887120665)"/><polygon points="185.5,75.1 173.4,82.2 164.4,76.3 166.4,67.4 184.2,64.2" fill="rgba(76,76,75,0.4926934609562159)"/><polygon points="256.7,176.9 246.9,181.0 246.2,175.8 252.6,170.8" fill="rgba(150,149,147,0.1857547702640295)"/><polygon points="896.7,774.4 892.2,778.1 887.7,776.9 884.4,772.6 889.0,769.9 895.5,771.9" fill="rgba(76,76,75,0.30016530662775043)"/><polygon points="318.8,125.4 305.1,130.0 293.3,125.9 293.0,118.9 300.1,110.9 315.7,113.9" fill="rgba(76,76,75,0.18064144778996707)"/><polygon points="567.5,45.6 563.9,46.0 562.0,44.0 565.6,42.9" fill="rgba(107,38,26,0.47967474436387425)"/><polygon points="716.1,886.8 706.3,891.2 694.6,889.5 698.7,878.5 711.3,877.8" fill="rgba(224,69,42,0.1813554677553475)"/><polygon points="416.6,185.6 413.0,187.3 409.9,183.7 414.6,182.6" fill="rgba(224,69,42,0.3665818551927805)"/><polygon points="783.3,663.9 776.2,668.3 773.8,663.1 778.0,658.4" fill="rgba(224,69,42,0.4952176040410996)"/><polygon points="502.8,276.9 495.5,282.2 490.0,273.9 498.8,271.9" fill="rgba(150,149,147,0.26866188323125245)"/><polygon points="238.8,536.1 237.2,538.3 234.3,536.9 234.2,534.0 238.1,533.4" fill="rgba(107,38,26,0.4579480867274106)"/><polygon points="912.5,220.3 906.8,226.6 899.6,216.8 910.7,213.0" fill="rgba(76,76,75,0.5413682383857668)"/><polygon points="424.6,576.1 415.7,579.1 409.4,576.5 407.3,570.1 414.5,563.7 425.2,565.8" fill="rgba(224,69,42,0.2322078493796289)"/><polygon points="119.3,112.2 116.2,114.9 114.0,112.5 115.0,110.9 119.6,110.0" fill="rgba(224,69,42,0.30600386070087554)"/><polygon points="883.5,879.1 882.5,881.3 878.0,879.7 876.9,877.0 880.3,874.7 882.9,876.2" fill="rgba(224,69,42,0.2485415774770081)"/><polygon points="984.0,220.1 978.5,229.0 966.0,227.0 961.5,213.6 970.2,206.3 983.2,208.3" fill="rgba(224,69,42,0.4106261347793043)"/><polygon points="189.5,422.6 179.0,430.4 173.2,421.2 183.7,415.2" fill="rgba(224,69,42,0.1978012835048139)"/><polygon points="316.6,717.0 305.7,723.9 299.3,715.3 308.9,710.2" fill="rgba(76,76,75,0.17346849845722317)"/><polygon points="532.4,739.5 523.1,746.2 518.6,739.1 528.3,732.4" fill="rgba(107,38,26,0.17839747242629528)"/><polygon points="293.6,230.8 290.3,235.8 281.5,232.4 284.9,225.2 295.4,222.6" fill="rgba(107,38,26,0.17435510758310557)"/><polygon points="91.2,832.0 79.1,840.1 67.2,841.4 68.1,830.2 74.2,823.9 87.2,824.4" fill="rgba(107,38,26,0.5390560821071267)"/><polygon points="569.9,14.4 552.8,21.5 548.5,10.7 559.6,3.8" fill="rgba(150,149,147,0.2527177341654897)"/><polygon points="1055.7,221.1 1052.2,223.6 1048.5,219.0 1053.2,216.8" fill="rgba(107,38,26,0.43191628906875845)"/><polygon points="802.0,18.2 795.9,23.4 792.1,17.1 798.3,12.4" fill="rgba(224,69,42,0.47035234201699494)"/><polygon points="643.6,787.5 640.1,791.1 633.9,789.8 632.2,786.6 634.9,782.1 642.3,784.8" fill="rgba(224,69,42,0.5170956680923701)"/><polygon points="92.6,820.7 89.7,826.9 82.0,823.6 75.1,818.8 85.5,812.9 91.5,812.6" fill="rgba(76,76,75,0.4867402391880751)"/><polygon points="190.9,574.3 186.7,580.7 177.6,573.7 177.5,566.3 187.9,568.0" fill="rgba(76,76,75,0.1620895722322166)"/><polygon points="609.1,131.9 604.6,134.0 603.1,131.1 605.9,128.6" fill="rgba(150,149,147,0.21994717674329878)"/><polygon points="702.0,552.5 694.4,555.0 685.3,553.2 688.8,547.4 695.9,547.4" fill="rgba(150,149,147,0.468430459164083)"/><polygon points="221.4,617.0 214.3,619.8 210.4,614.2 217.1,609.1" fill="rgba(76,76,75,0.4662212771736086)"/><polygon points="1077.1,383.6 1068.6,385.5 1062.2,379.3 1070.0,377.1" fill="rgba(76,76,75,0.20562499122694136)"/><polygon points="99.3,312.5 95.7,315.4 93.8,313.3 93.3,310.1 97.4,309.2" fill="rgba(107,38,26,0.42205879533663393)"/><polygon points="555.6,9.5 537.4,12.6 532.7,1.5 541.4,-4.9" fill="rgba(150,149,147,0.23285762410610916)"/><polygon points="131.9,57.2 126.7,62.0 120.9,56.2 122.6,52.2 132.1,50.4" fill="rgba(150,149,147,0.38103851307183506)"/><polygon points="224.6,336.5 208.0,341.6 199.9,330.8 213.1,321.6" fill="rgba(224,69,42,0.19906107638031245)"/><polygon points="1031.8,156.5 1026.1,161.7 1020.1,159.8 1020.5,154.8 1025.0,152.1 1030.8,152.4" fill="rgba(107,38,26,0.5297042408399284)"/><polygon points="737.6,51.4 734.0,53.3 732.0,49.8 734.6,48.6" fill="rgba(107,38,26,0.4519856546446681)"/><polygon points="601.1,816.2 599.2,817.9 595.3,817.3 595.2,814.8 597.2,812.6 601.5,812.9" fill="rgba(76,76,75,0.28795711550861597)"/><polygon points="120.0,113.1 117.6,113.6 113.5,114.8 113.4,110.3 116.1,109.4 119.1,109.6" fill="rgba(224,69,42,0.1821380583010614)"/><polygon points="893.0,201.3 880.5,208.6 879.4,199.4 886.2,195.3" fill="rgba(224,69,42,0.18345143239945175)"/><polygon points="589.5,875.3 582.6,881.5 570.2,876.8 575.8,868.0 586.0,867.5" fill="rgba(224,69,42,0.1969613009504974)"/><polygon points="975.4,200.7 969.1,206.1 959.0,203.4 962.5,192.6 975.3,192.9" fill="rgba(107,38,26,0.2511150488071144)"/><polygon points="357.7,173.1 353.8,178.3 343.7,176.7 344.6,172.6 349.0,167.9 353.8,169.6" fill="rgba(107,38,26,0.2093255420587957)"/><polygon points="273.2,872.5 271.1,874.6 268.8,873.5 268.2,871.8 268.3,869.1 272.4,869.8" fill="rgba(150,149,147,0.2306513582728803)"/><polygon points="460.1,545.7 454.8,546.9 451.2,545.3 451.9,541.2 457.4,539.5" fill="rgba(107,38,26,0.49722938299179076)"/><polygon points="1103.1,773.5 1089.5,778.2 1086.9,768.8 1097.4,763.3" fill="rgba(76,76,75,0.24844483830034733)"/><polygon points="313.6,482.1 310.6,486.1 305.5,482.7 306.7,478.5 312.7,478.4" fill="rgba(224,69,42,0.4360510809719562)"/><polygon points="1062.8,579.3 1057.0,583.9 1051.4,581.2 1046.8,576.3 1054.6,574.7 1061.6,574.1" fill="rgba(107,38,26,0.41257516633719205)"/><polygon points="565.3,187.2 557.6,190.7 549.0,187.1 549.1,182.2 558.0,181.5" fill="rgba(107,38,26,0.1708657562173903)"/><polygon points="718.5,6.1 707.0,16.0 700.8,3.9 710.2,-3.4" fill="rgba(150,149,147,0.337480333019048)"/><polygon points="63.7,363.5 60.8,367.0 54.1,365.6 53.0,361.2 58.3,360.1 61.9,361.3" fill="rgba(150,149,147,0.43522472944110635)"/><polygon points="461.8,893.9 451.8,897.9 444.7,892.1 457.2,889.5" fill="rgba(76,76,75,0.2305871859565377)"/><polygon points="198.4,489.1 187.6,496.2 176.3,484.8 189.9,477.1" fill="rgba(107,38,26,0.28653624769300223)"/><polygon points="1046.6,498.9 1039.5,503.3 1036.1,496.9 1043.0,494.4" fill="rgba(150,149,147,0.3392057801969349)"/><polygon points="325.7,291.9 320.2,296.8 312.3,293.3 315.2,288.7 323.0,287.4" fill="rgba(224,69,42,0.2804961628653109)"/><polygon points="495.8,642.0 486.7,648.8 481.5,636.3 490.1,630.9" fill="rgba(224,69,42,0.4881521912664175)"/><polygon points="886.5,71.0 884.1,72.6 882.0,70.0 886.0,68.8" fill="rgba(107,38,26,0.47494630770757795)"/><polygon points="926.6,154.3 912.9,161.7 900.2,157.7 906.4,148.9 917.5,146.1" fill="rgba(107,38,26,0.16604977859184147)"/><polygon points="374.9,487.8 370.9,494.0 364.8,488.0 364.7,483.1 372.0,483.4" fill="rgba(224,69,42,0.2886747289821506)"/><polygon points="137.2,111.9 131.0,117.0 125.4,116.1 123.0,109.5 127.6,107.3 133.0,109.6" fill="rgba(76,76,75,0.39914999887347224)"/><polygon points="168.0,598.8 162.2,603.1 158.3,599.9 153.2,595.3 161.3,588.2 168.9,592.8" fill="rgba(107,38,26,0.5466148713976146)"/><polygon points="190.3,330.6 174.9,336.9 167.2,328.0 180.3,319.9" fill="rgba(107,38,26,0.34222967032343155)"/><polygon points="1080.3,574.3 1070.8,576.6 1067.9,570.1 1074.8,566.7" fill="rgba(224,69,42,0.17144141340628266)"/><polygon points="565.3,244.2 562.7,250.6 551.7,245.6 556.9,240.5 564.5,237.0" fill="rgba(224,69,42,0.2552358505688608)"/><polygon points="44.2,101.8 39.8,107.0 31.9,107.6 30.3,97.9 36.4,96.8 45.5,94.2" fill="rgba(107,38,26,0.2298959189467132)"/><polygon points="216.0,335.0 212.9,338.1 210.0,337.1 207.4,334.9 211.2,333.0 216.1,333.0" fill="rgba(150,149,147,0.2642737785726786)"/><polygon points="344.0,265.0 338.5,270.5 328.3,265.9 332.7,259.9 343.4,260.4" fill="rgba(224,69,42,0.5231950807757676)"/><polygon points="408.5,861.7 401.0,866.3 396.3,866.0 392.7,860.8 395.8,853.1 410.1,856.1" fill="rgba(224,69,42,0.17132270833477378)"/><polygon points="486.7,59.8 483.8,60.4 481.5,60.2 481.2,58.0 481.9,56.2 485.8,56.7" fill="rgba(224,69,42,0.32961115179583433)"/><polygon points="26.6,404.1 5.6,411.3 -3.4,395.0 12.1,394.0" fill="rgba(150,149,147,0.33640613336116076)"/><polygon points="166.3,168.7 166.1,172.0 161.0,171.0 160.7,166.5 162.0,165.2 165.9,166.0" fill="rgba(150,149,147,0.18645181380212308)"/><polygon points="845.4,439.7 836.2,444.9 832.1,438.7 838.8,435.1" fill="rgba(76,76,75,0.34394098812714224)"/><polygon points="345.3,212.3 338.2,214.0 331.6,209.6 339.3,206.8" fill="rgba(224,69,42,0.37370702739804984)"/><polygon points="153.7,138.1 147.0,142.7 137.5,140.1 135.5,134.4 142.3,130.8 149.3,131.5" fill="rgba(150,149,147,0.4813616321794689)"/><polygon points="602.3,679.3 600.0,681.3 597.0,680.5 597.2,678.9 598.9,676.4 601.7,677.3" fill="rgba(224,69,42,0.3350592882744968)"/><polygon points="676.5,34.8 673.6,37.1 672.1,33.6 675.4,31.4" fill="rgba(107,38,26,0.26509468773379924)"/><polygon points="724.4,822.8 714.9,828.1 708.5,822.1 720.6,817.8" fill="rgba(150,149,147,0.5536333545483649)"/><polygon points="643.9,499.6 635.3,504.9 626.4,497.2 640.3,489.5" fill="rgba(107,38,26,0.2690436900034547)"/><polygon points="98.9,677.8 90.8,679.5 86.5,674.3 92.1,671.6" fill="rgba(224,69,42,0.30411066658794883)"/><polygon points="986.8,756.7 980.2,760.4 976.2,754.0 982.6,751.3" fill="rgba(150,149,147,0.38081327680498367)"/><polygon points="386.0,362.7 374.9,367.9 359.8,362.5 365.7,347.3 378.6,351.0" fill="rgba(150,149,147,0.3089962209947407)"/><polygon points="1019.8,348.0 1016.4,350.9 1012.9,346.5 1017.5,344.3" fill="rgba(76,76,75,0.4049364700354636)"/><polygon points="933.3,779.7 931.9,781.0 928.3,780.3 928.2,778.3 929.9,777.3 933.2,776.8" fill="rgba(76,76,75,0.4765537984110415)"/><polygon points="205.5,63.0 199.4,65.2 197.2,63.6 197.9,59.2 202.4,60.3" fill="rgba(107,38,26,0.19874703524634244)"/><polygon points="873.3,608.2 870.9,610.7 869.0,609.4 867.3,607.5 869.0,605.6 872.3,606.9" fill="rgba(224,69,42,0.3469138942100108)"/><polygon points="661.7,72.3 657.4,74.9 649.8,71.8 652.6,65.7 657.9,66.9" fill="rgba(76,76,75,0.30273031586781146)"/><polygon points="636.2,860.5 624.8,871.2 607.6,862.6 610.5,852.8 626.5,851.3" fill="rgba(107,38,26,0.47012382414191967)"/><polygon points="983.9,831.8 974.6,841.6 966.0,832.8 965.9,822.2 982.4,820.8" fill="rgba(107,38,26,0.3219180703535676)"/><polygon points="177.7,122.1 168.5,126.0 160.6,121.7 159.9,116.0 170.6,113.2" fill="rgba(107,38,26,0.44682064963504675)"/><polygon points="642.5,481.9 642.1,488.6 630.6,487.7 629.9,478.8 635.4,470.0 644.8,473.0" fill="rgba(76,76,75,0.3342933969013393)"/><polygon points="1047.4,203.5 1043.4,206.0 1042.0,204.2 1042.6,201.0 1045.4,200.9" fill="rgba(150,149,147,0.2571314248628914)"/><polygon points="798.0,868.1 792.3,872.9 783.6,867.5 787.3,861.9 794.2,859.4" fill="rgba(224,69,42,0.3655999112315476)"/><polygon points="740.3,844.7 736.2,845.7 733.8,842.9 738.9,841.1" fill="rgba(150,149,147,0.21366483218967916)"/><polygon points="766.6,531.1 754.6,536.2 748.1,527.7 758.9,521.8" fill="rgba(224,69,42,0.34932726755738264)"/><polygon points="786.4,194.2 772.6,199.3 768.1,189.8 778.3,185.7" fill="rgba(224,69,42,0.47852846993133424)"/><polygon points="113.7,361.7 99.6,372.3 92.8,358.6 100.6,351.4" fill="rgba(76,76,75,0.1758802947960794)"/><polygon points="256.6,812.3 244.7,819.7 240.9,809.9 252.5,803.8" fill="rgba(224,69,42,0.22988433646038176)"/><polygon points="1001.3,215.0 989.8,217.9 983.7,211.7 991.2,207.8" fill="rgba(150,149,147,0.1648500300385058)"/><polygon points="765.9,586.5 761.9,591.7 752.4,589.4 750.6,583.4 753.6,579.2 768.2,581.0" fill="rgba(224,69,42,0.50962048381567)"/><polygon points="394.4,541.5 386.4,548.9 379.7,540.4 383.0,534.6 394.4,533.5" fill="rgba(224,69,42,0.35035271005705004)"/><polygon points="706.8,55.6 697.4,60.9 689.5,50.1 699.4,44.1" fill="rgba(107,38,26,0.4549467782862484)"/><polygon points="1063.0,164.2 1058.4,173.8 1044.8,167.5 1040.2,159.5 1050.1,152.3 1062.5,156.1" fill="rgba(150,149,147,0.2902457980811596)"/><polygon points="791.3,726.4 779.1,731.5 773.3,722.5 785.0,717.3" fill="rgba(107,38,26,0.5369146047532559)"/><polygon points="150.6,253.1 146.0,258.5 132.4,253.8 134.4,243.5 146.0,246.1" fill="rgba(150,149,147,0.3177662280760706)"/><polygon points="391.0,200.2 389.2,201.2 386.7,200.3 384.8,197.8 387.8,196.9 389.5,197.1" fill="rgba(107,38,26,0.4830497136712074)"/><polygon points="851.4,436.7 846.2,439.2 839.8,438.8 839.1,435.1 842.0,431.0 849.4,431.9" fill="rgba(150,149,147,0.4775674048252404)"/><polygon points="637.1,432.1 628.1,437.3 617.7,425.9 633.8,420.9" fill="rgba(224,69,42,0.3518929057195783)"/><polygon points="264.6,541.4 254.1,544.8 241.8,545.6 243.3,534.1 247.3,529.1 260.9,533.3" fill="rgba(224,69,42,0.443211375772953)"/><polygon points="412.9,486.5 403.0,492.9 393.3,482.5 406.9,473.2" fill="rgba(224,69,42,0.21586459459736945)"/><polygon points="195.4,621.2 191.6,629.3 176.6,628.0 176.7,618.1 183.0,610.1 191.7,616.4" fill="rgba(224,69,42,0.3745231436938048)"/><polygon points="192.8,895.0 187.4,897.7 182.6,892.1 189.3,891.1" fill="rgba(76,76,75,0.22079650148749352)"/><polygon points="554.8,381.6 548.4,385.4 543.3,383.2 538.9,377.0 543.9,374.2 550.8,377.9" fill="rgba(150,149,147,0.5088722001202405)"/><polygon points="224.8,229.0 216.9,233.8 209.2,231.0 204.4,224.6 213.1,220.7 218.8,223.5" fill="rgba(76,76,75,0.4271481816098094)"/><polygon points="1102.8,18.5 1099.6,22.4 1091.7,21.4 1088.9,17.8 1096.8,14.7 1103.8,14.4" fill="rgba(107,38,26,0.276561224963516)"/><polygon points="715.4,742.9 709.6,745.1 705.3,741.0 711.5,738.5" fill="rgba(107,38,26,0.18966451216489078)"/><polygon points="168.1,176.4 159.1,186.4 146.7,173.4 162.9,167.7" fill="rgba(224,69,42,0.24209394309669735)"/><polygon points="1091.3,216.0 1079.6,220.9 1066.4,207.8 1085.6,203.0" fill="rgba(107,38,26,0.35224061723798517)"/><polygon points="849.2,545.4 841.6,550.6 830.4,546.8 838.2,539.1 849.5,534.8" fill="rgba(150,149,147,0.5316285226866603)"/><polygon points="911.4,733.3 907.4,734.9 906.4,732.9 909.2,731.4" fill="rgba(76,76,75,0.2539883342012763)"/><polygon points="452.6,843.3 448.4,846.3 445.9,843.0 447.4,840.2 452.6,839.0" fill="rgba(76,76,75,0.4157244140654802)"/><polygon points="454.0,331.2 445.4,334.1 438.0,332.9 440.7,324.9 454.1,321.9" fill="rgba(76,76,75,0.24390862001106145)"/><polygon points="743.8,265.5 740.0,272.0 729.4,271.2 730.7,261.6 734.6,257.6 743.2,260.1" fill="rgba(150,149,147,0.4358727512322367)"/><polygon points="601.1,99.9 593.9,105.7 584.9,103.1 586.7,95.2 594.8,95.4" fill="rgba(150,149,147,0.28747655883431433)"/><polygon points="914.9,166.1 906.6,167.3 893.0,164.2 899.7,155.6 912.7,155.9" fill="rgba(107,38,26,0.27869146833196284)"/><polygon points="404.8,773.9 398.4,777.0 390.6,775.7 384.4,767.1 394.2,762.2 400.1,765.4" fill="rgba(76,76,75,0.4452657228708268)"/><polygon points="1001.1,283.6 994.7,289.9 988.8,281.1 996.6,277.0" fill="rgba(107,38,26,0.4327381808683276)"/><polygon points="429.9,798.4 424.7,802.5 420.1,797.4 426.5,794.9" fill="rgba(76,76,75,0.5072101335413755)"/><polygon points="454.9,760.2 448.6,768.8 437.6,769.2 439.8,757.7 441.0,750.6 452.0,755.6" fill="rgba(224,69,42,0.4851227904111147)"/><polygon points="183.1,569.3 178.8,572.2 176.3,569.3 173.2,566.9 176.1,563.6 180.7,565.2" fill="rgba(76,76,75,0.2610250095278025)"/><polygon points="469.0,557.3 452.7,560.3 450.4,552.4 459.2,548.5" fill="rgba(224,69,42,0.5068457830138505)"/><polygon points="961.7,185.2 954.2,189.3 947.5,181.5 956.8,176.2" fill="rgba(224,69,42,0.3007528491690755)"/><polygon points="350.8,382.2 342.1,385.3 334.5,383.7 332.3,375.8 337.1,372.5 349.8,373.9" fill="rgba(107,38,26,0.3592826418019831)"/><polygon points="138.0,272.2 134.9,273.4 133.3,270.8 136.5,268.7" fill="rgba(76,76,75,0.5299486087076366)"/><polygon points="548.9,832.9 539.4,838.8 531.6,839.8 524.4,831.6 534.4,824.6 546.4,823.3" fill="rgba(224,69,42,0.4334964390285313)"/><polygon points="956.4,587.3 941.0,594.5 932.7,584.5 943.9,576.4" fill="rgba(76,76,75,0.4429030144028365)"/><polygon points="689.0,578.3 685.8,581.8 683.2,580.9 681.4,578.0 684.2,575.4 687.6,576.6" fill="rgba(224,69,42,0.29424689555540684)"/><polygon points="570.0,182.8 563.2,184.2 559.8,178.9 567.8,175.9" fill="rgba(76,76,75,0.38662278609350326)"/><polygon points="69.2,333.4 64.2,336.5 55.1,335.7 54.5,332.0 60.7,326.1 67.2,326.8" fill="rgba(224,69,42,0.3794813801907003)"/><polygon points="733.2,756.7 729.1,760.9 722.8,758.7 715.9,754.3 724.7,752.3 730.3,752.7" fill="rgba(224,69,42,0.38740314546972515)"/><polygon points="533.6,108.0 531.1,109.9 526.8,109.1 526.0,105.7 527.3,102.5 532.5,103.2" fill="rgba(107,38,26,0.21636566281318664)"/><polygon points="235.7,866.5 227.3,869.8 222.5,867.8 223.5,861.6 233.8,858.6" fill="rgba(150,149,147,0.3943166182748974)"/><polygon points="398.2,348.6 395.9,350.1 393.7,348.8 393.0,347.4 395.1,346.7 396.6,346.7" fill="rgba(107,38,26,0.5238119426555932)"/><polygon points="1002.6,366.3 994.0,369.5 988.3,363.5 987.6,357.5 996.6,356.9" fill="rgba(224,69,42,0.5534056439436973)"/><polygon points="155.3,77.1 147.1,81.1 143.6,74.3 152.3,71.5" fill="rgba(150,149,147,0.47159631535410884)"/><polygon points="660.4,161.8 651.8,167.0 641.1,161.4 639.2,148.2 653.3,149.5" fill="rgba(224,69,42,0.24269030805677178)"/><polygon points="272.2,826.0 259.6,831.3 255.6,822.1 266.9,819.7" fill="rgba(76,76,75,0.23132843425497412)"/><polygon points="667.5,695.2 665.5,698.5 658.3,695.6 660.9,690.4 665.9,691.1" fill="rgba(76,76,75,0.3091190482862294)"/><polygon points="1039.6,245.4 1026.5,250.9 1015.5,246.7 1022.3,241.9 1032.9,237.0" fill="rgba(224,69,42,0.22113659199327232)"/><polygon points="738.6,459.7 735.1,461.6 732.5,461.5 731.3,458.3 733.8,454.5 737.9,455.1" fill="rgba(224,69,42,0.35236066946759825)"/><polygon points="1026.7,719.1 1024.8,720.4 1021.9,719.6 1023.7,717.3 1025.6,717.2" fill="rgba(150,149,147,0.5452827269583941)"/><polygon points="348.7,510.4 345.2,512.8 341.0,512.1 342.1,508.2 346.6,508.7" fill="rgba(107,38,26,0.4765038737468422)"/><polygon points="685.5,159.1 681.8,163.2 677.0,159.7 675.5,156.6 679.3,153.5 685.5,153.4" fill="rgba(150,149,147,0.36625015543773776)"/><polygon points="138.3,326.1 130.0,329.2 125.1,325.1 132.8,322.6" fill="rgba(150,149,147,0.5026482969895005)"/><polygon points="152.0,725.9 145.7,733.3 136.9,729.3 131.4,725.4 141.3,714.2 150.5,718.0" fill="rgba(107,38,26,0.2066909102164209)"/><polygon points="841.0,482.8 830.8,491.6 826.6,480.3 836.8,475.3" fill="rgba(224,69,42,0.2937946190498769)"/><polygon points="388.6,724.8 384.0,732.4 376.7,726.8 372.5,722.6 379.0,720.7 387.0,719.0" fill="rgba(224,69,42,0.3214215748384595)"/><polygon points="391.6,244.4 385.9,249.0 374.4,251.1 372.7,242.1 379.2,235.9 389.5,237.8" fill="rgba(107,38,26,0.2801597965322435)"/><polygon points="990.3,292.5 978.2,296.3 966.5,296.4 974.7,284.7 983.3,283.2" fill="rgba(224,69,42,0.1694220407307148)"/><polygon points="985.9,838.7 981.3,840.6 979.0,836.9 983.0,834.5" fill="rgba(224,69,42,0.38769177509471775)"/><polygon points="642.3,132.9 634.6,141.7 618.1,137.6 623.2,125.6 636.8,124.9" fill="rgba(224,69,42,0.3345825766585767)"/><polygon points="576.6,274.0 570.6,275.9 562.3,277.1 560.8,269.1 566.7,266.8 572.0,267.5" fill="rgba(107,38,26,0.4636764739081264)"/><polygon points="745.3,838.9 738.0,847.4 724.1,844.6 732.0,832.6 742.1,832.6" fill="rgba(107,38,26,0.18323471046984197)"/><polygon points="94.6,550.1 89.1,554.7 84.6,552.1 82.5,548.5 85.3,545.0 92.5,547.2" fill="rgba(107,38,26,0.3256960988417268)"/><polygon points="864.5,560.8 862.4,567.0 853.1,564.4 849.3,558.1 855.2,550.2 864.5,556.5" fill="rgba(150,149,147,0.18503426456823946)"/><polygon points="937.7,622.8 931.9,630.7 920.1,626.8 912.9,620.5 920.0,611.4 939.9,615.5" fill="rgba(224,69,42,0.41693539530038837)"/><polygon points="69.6,562.4 58.9,567.4 50.7,564.8 52.7,558.1 62.4,552.5" fill="rgba(107,38,26,0.28578668473288416)"/><polygon points="916.0,580.7 907.0,586.7 892.8,575.9 908.5,570.2" fill="rgba(150,149,147,0.3127986816130579)"/><polygon points="202.1,619.7 195.9,625.1 188.4,620.4 190.1,610.0 201.0,609.4" fill="rgba(107,38,26,0.3643238684535027)"/><polygon points="996.8,461.9 992.6,462.6 990.0,461.4 990.6,459.3 994.2,458.0" fill="rgba(224,69,42,0.44151695048436523)"/><polygon points="777.3,751.3 772.1,753.5 768.8,749.7 776.2,745.8" fill="rgba(76,76,75,0.272484376039356)"/><polygon points="921.3,487.5 918.0,493.5 910.4,491.4 906.6,486.2 914.0,482.4 919.1,484.6" fill="rgba(107,38,26,0.22765648694708945)"/><polygon points="572.0,397.8 564.8,402.9 554.8,401.2 555.2,390.2 569.4,391.3" fill="rgba(150,149,147,0.5591145366802812)"/><polygon points="548.1,70.5 538.5,76.9 528.3,71.9 529.5,63.6 534.9,60.5 542.7,58.7" fill="rgba(150,149,147,0.3493078435212374)"/><polygon points="639.9,758.7 635.3,765.2 626.6,761.8 625.6,756.1 631.1,751.4 642.8,751.7" fill="rgba(107,38,26,0.24286209236830475)"/><polygon points="73.5,383.3 68.4,387.8 62.8,381.9 70.1,378.3" fill="rgba(107,38,26,0.28189799305051566)"/><polygon points="1001.7,427.4 996.6,430.9 991.7,430.1 990.3,425.6 993.8,422.8 999.5,422.5" fill="rgba(150,149,147,0.2540243654884398)"/><polygon points="1013.3,28.9 1001.8,36.7 995.1,25.5 1005.8,18.8" fill="rgba(224,69,42,0.3078514385409653)"/><polygon points="666.2,558.3 657.2,562.2 643.8,554.7 660.1,548.1" fill="rgba(107,38,26,0.2444297486357391)"/><polygon points="48.3,98.6 46.4,109.3 34.8,103.2 28.3,92.3 38.4,88.5 51.0,90.0" fill="rgba(224,69,42,0.53642523329705)"/><polygon points="932.9,886.3 928.5,892.1 923.3,888.9 925.1,883.2 933.1,882.1" fill="rgba(107,38,26,0.40411033829674126)"/><polygon points="402.2,395.4 397.9,396.3 396.3,394.5 398.9,392.2" fill="rgba(107,38,26,0.29283284483477473)"/><polygon points="873.6,893.0 870.0,894.9 867.8,891.4 870.6,889.1" fill="rgba(224,69,42,0.19854982918128372)"/><polygon points="593.0,390.2 590.0,394.5 583.2,390.6 585.3,385.8 590.5,386.5" fill="rgba(107,38,26,0.4502155542746187)"/><rect width="1100" height="900" fill="#f2f0ed" filter="url(#g11)" opacity=".1"/></svg>