<svg xmlns="http://www.w3.org/2000/svg" viewBox="0 0 1200 723" width="1200" height="723" preserveAspectRatio="xMidYMid slice" role="img">
<defs><linearGradient id="bd3k" x1="62.10%" y1="1.49%" x2="37.90%" y2="98.51%"><stop offset="0%" stop-color="#9a9a96"/><stop offset="34%" stop-color="#6f6e69"/><stop offset="72%" stop-color="#1616NaN"/><stop offset="100%" stop-color="#0f0f0e"/></linearGradient><linearGradient id="fl3m" x1="50.00%" y1="0.00%" x2="50.00%" y2="100.00%"><stop offset="0%" stop-color="#0b0bNaN"/><stop offset="100%" stop-color="#0303NaN"/></linearGradient><linearGradient id="sp3n" x1="0.49%" y1="43.04%" x2="99.51%" y2="56.96%"><stop offset="0%" stop-color="#ffffff" stop-opacity="0"/><stop offset="18%" stop-color="#ffffff" stop-opacity="0.9"/><stop offset="52%" stop-color="#ffffff" stop-opacity="0.55"/><stop offset="100%" stop-color="#ffffff" stop-opacity="0"/></linearGradient><filter id="gr3l" x="0" y="0" width="100%" height="100%">
    <feTurbulence type="fractalNoise" baseFrequency="1.1" numOctaves="3" stitchTiles="stitch" seed="7"/>
    <feColorMatrix type="saturate" values="0"/>
    <feComponentTransfer><feFuncA type="linear" slope="0.2"/></feComponentTransfer>
  </filter></defs>
<rect width="1200" height="723" fill="#0f0f0e"/>
<rect y="520.56" width="1200" height="202.44000000000003" fill="url(#fl3m)"/>
<path d="M-60 227.745 C 360 175.68900000000002, 792 182.196, 1260 221.238 L1260 554.7837508571777 C 840 576.4737508571777, 360 576.4737508571777, -60 546.1077508571776 Z" fill="url(#bd3k)"/>
<path d="M84.00000000000006 723 L84.00000000000006 540.3237508571776 C 119.28000000000006 410.18375085717764, 552.72 410.18375085717764, 588 540.3237508571776 L588 723 Z" fill="#0404NaN"/>
<path d="M84.00000000000006 540.3237508571776 C 119.28000000000006 410.18375085717764, 552.72 410.18375085717764, 588 540.3237508571776" fill="none" stroke="rgba(255,255,255,0.42)" stroke-width="2.2"/>
<path d="M-60 375.1 C 360 353.4, 792 360.6, 1260 349.8" fill="none" stroke="rgba(255,255,255,0.5)" stroke-width="1.6"/>
<path d="M-60 380.1 C 360 358.4, 792 365.7, 1260 354.8" fill="none" stroke="#0808NaN" stroke-width="2.4"/>
<path d="M-60 246.5 C 360 214.0, 792 220.5, 1260 243.2 L1260 262.0 C 792 239.3, 360 232.8, -60 265.3 Z" fill="url(#sp3n)" opacity="0.9"/>
<path d="M-60 273.5 C 360 240.9, 792 247.4, 1260 270.2 L1260 280.3 C 792 257.6, 360 251.0, -60 283.6 Z" fill="url(#sp3n)" opacity="0.6"/>
<path d="M-60 438.9 C 360 406.3, 792 412.8, 1260 435.6 L1260 442.1 C 792 419.3, 360 412.8, -60 445.4 Z" fill="url(#sp3n)" opacity="0.32"/>
<path d="M792.0 201.7 C 828.0 325.4, 774.0 433.8, 816.0 554.8" fill="none" stroke="#0303NaN" stroke-width="4"/>
<path d="M789.0 201.7 C 825.0 325.4, 771.0 433.8, 813.0 554.8" fill="none" stroke="rgba(255,255,255,0.4)" stroke-width="1.3"/>
<path d="M72 412.11 C 360 368.73, 600 390.42, 888 354.27" fill="none" stroke="rgba(192,189,180,0.75)" stroke-width="2.2" stroke-linecap="round"/>
<path d="M0 576.4737508571777H1200V627.0837508571776H0Z" fill="rgba(111,110,105,0.12)"/>
<rect width="1200" height="723" filter="url(#gr3l)" opacity=".34"/>
</svg>