<svg xmlns="http://www.w3.org/2000/svg" viewBox="0 0 1100 850" width="1100" height="850" preserveAspectRatio="xMidYMid slice" aria-hidden="true"><defs><filter id="g1i" x="0" y="0" width="100%" height="100%" color-interpolation-filters="sRGB">
<feTurbulence type="fractalNoise" baseFrequency="1.8" numOctaves="4" stitchTiles="stitch" seed="11" result="n"/>
<feColorMatrix in="n" type="saturate" values="0" result="g"/>
<feComponentTransfer in="g" result="a"><feFuncA type="linear" slope="0.6" intercept="0"/></feComponentTransfer>
</filter></defs><rect width="1100" height="850" fill="#ebe9e4"/><polygon points="61.5,195.1 55.2,199.0 48.0,193.9 57.4,189.2" fill="rgba(115,116,116,0.29055167086422445)"/><polygon points="870.7,27.0 854.4,35.8 848.2,24.7 859.6,18.2" fill="rgba(190,155,155,0.5532235125452281)"/><polygon points="353.3,612.7 341.3,619.5 327.2,619.2 332.3,607.7 339.8,601.4 345.7,605.0" fill="rgba(122,47,53,0.5434329158067703)"/><polygon points="512.7,478.0 505.1,480.5 499.7,477.9 502.0,473.8 508.2,471.4" fill="rgba(190,155,155,0.309723962508142)"/><polygon points="997.3,244.7 984.4,249.8 978.3,240.8 988.6,238.5" fill="rgba(190,155,155,0.3985009334422648)"/><polygon points="54.7,812.1 50.7,813.6 46.7,810.1 51.6,807.3" fill="rgba(122,47,53,0.16328535111621023)"/><polygon points="145.4,590.2 135.3,595.3 121.1,591.0 132.3,583.4 140.4,581.3" fill="rgba(122,47,53,0.25921522829681637)"/><polygon points="609.7,566.7 605.1,572.1 592.3,571.0 591.5,558.2 607.2,556.7" fill="rgba(190,155,155,0.16436511533334852)"/><polygon points="583.0,213.1 577.2,214.9 576.3,211.2 580.6,209.3" fill="rgba(122,47,53,0.352270870320499)"/><polygon points="64.1,43.9 47.8,50.0 46.5,37.5 57.0,34.6" fill="rgba(122,47,53,0.16728055872023107)"/><polygon points="1010.0,300.8 1004.8,303.9 1000.0,300.5 1000.2,295.3 1007.2,295.7" fill="rgba(115,116,116,0.39968286104500295)"/><polygon points="618.4,90.1 616.3,92.4 611.7,91.2 609.8,89.0 613.2,84.9 619.1,86.7" fill="rgba(115,116,116,0.3056380947493017)"/><polygon points="215.4,230.3 212.3,232.2 209.3,232.2 208.3,229.1 210.5,226.2 215.0,227.6" fill="rgba(190,155,155,0.3201039005443454)"/><polygon points="1063.8,444.4 1053.5,450.6 1033.8,443.8 1040.8,432.0 1054.1,430.8" fill="rgba(185,184,181,0.25059475865215064)"/><polygon points="326.7,570.6 317.0,576.9 312.6,573.2 308.4,566.5 312.7,559.6 325.4,562.3" fill="rgba(190,155,155,0.1629233967885375)"/><polygon points="31.2,563.4 22.9,566.7 17.4,558.8 27.5,556.4" fill="rgba(122,47,53,0.2843345474824309)"/><polygon points="11.5,635.5 7.9,638.5 1.9,636.3 -1.1,633.2 2.4,628.0 9.7,628.6" fill="rgba(115,116,116,0.364056833870709)"/><polygon points="464.9,133.5 462.0,135.4 458.8,134.5 455.2,133.1 460.7,129.3 463.2,131.9" fill="rgba(190,155,155,0.24122264379635455)"/><polygon points="205.7,343.7 201.3,349.8 195.4,346.6 191.9,342.6 197.6,338.1 203.5,338.0" fill="rgba(115,116,116,0.3594081401266158)"/><polygon points="506.2,235.1 496.5,242.1 487.0,235.3 479.1,228.6 493.4,220.4 505.2,223.3" fill="rgba(190,155,155,0.4410105193406344)"/><polygon points="962.7,78.2 953.7,85.9 946.5,83.5 939.4,75.5 946.9,68.5 961.4,70.2" fill="rgba(185,184,181,0.2619531464204192)"/><polygon points="471.4,463.7 461.6,468.8 451.6,463.1 452.6,455.8 465.1,454.3" fill="rgba(115,116,116,0.2758518078736961)"/><polygon points="75.1,789.1 67.1,791.3 62.9,789.2 64.1,783.9 69.7,785.2" fill="rgba(115,116,116,0.1688539912365377)"/><polygon points="457.7,764.3 455.1,766.5 452.3,766.2 451.0,763.3 453.4,761.1 455.6,763.0" fill="rgba(190,155,155,0.23153670759871603)"/><polygon points="887.7,99.0 883.2,101.9 879.4,98.4 880.5,94.2 884.9,95.5" fill="rgba(185,184,181,0.32764251496642827)"/><polygon points="424.0,152.5 420.3,159.5 409.0,156.8 412.7,144.2 424.2,144.0" fill="rgba(185,184,181,0.4589966846071184)"/><polygon points="350.1,452.1 345.5,456.1 340.0,453.8 340.1,450.1 341.6,447.3 346.9,447.7" fill="rgba(122,47,53,0.4185372224450111)"/><polygon points="180.2,470.7 174.5,474.0 164.5,470.7 170.1,466.6 175.9,466.0" fill="rgba(115,116,116,0.5541813305951655)"/><polygon points="63.2,781.1 58.5,787.5 49.9,783.2 48.4,779.9 52.8,774.3 60.6,774.4" fill="rgba(115,116,116,0.49893731413409115)"/><polygon points="415.4,63.6 410.7,66.6 403.2,66.7 405.0,57.2 415.6,57.4" fill="rgba(122,47,53,0.5417146869376303)"/><polygon points="488.0,251.8 481.8,254.1 475.6,254.1 477.4,248.8 479.9,243.2 485.1,245.8" fill="rgba(190,155,155,0.3051709609478712)"/><polygon points="999.6,37.7 986.2,40.3 975.5,30.1 987.7,24.2" fill="rgba(185,184,181,0.4856463426165283)"/><polygon points="522.7,811.0 515.5,816.5 504.3,811.9 508.1,801.4 520.9,802.5" fill="rgba(190,155,155,0.21397392604500057)"/><polygon points="326.3,175.5 322.4,179.9 316.9,174.9 323.9,172.5" fill="rgba(122,47,53,0.35618637412786486)"/><polygon points="666.4,414.0 660.0,418.0 659.1,412.5 663.2,409.3" fill="rgba(115,116,116,0.43169646983966237)"/><polygon points="809.8,653.0 796.7,654.9 786.3,643.6 801.0,640.0" fill="rgba(185,184,181,0.34547206735238434)"/><polygon points="206.0,619.3 199.3,627.0 187.7,622.2 193.1,609.0 203.2,613.9" fill="rgba(115,116,116,0.5595964979752899)"/><polygon points="262.7,334.1 256.9,339.0 251.2,332.3 259.4,330.5" fill="rgba(115,116,116,0.3790601699054241)"/><polygon points="97.5,735.2 91.0,741.0 86.5,732.4 94.5,730.5" fill="rgba(122,47,53,0.4881042157672346)"/><polygon points="140.4,339.5 127.2,346.3 115.0,342.1 120.0,330.8 131.7,331.2" fill="rgba(185,184,181,0.5325099287927151)"/><polygon points="255.7,416.3 243.7,419.8 232.0,414.0 237.4,403.1 248.5,408.1" fill="rgba(190,155,155,0.20358827685937286)"/><polygon points="920.3,707.9 908.3,711.7 901.2,705.3 911.9,698.1" fill="rgba(185,184,181,0.29704987270757555)"/><polygon points="454.6,599.7 448.5,601.1 443.0,600.5 443.3,594.4 451.9,593.9" fill="rgba(122,47,53,0.41719813611358403)"/><polygon points="22.1,394.2 17.4,398.4 10.7,396.4 7.0,391.5 15.1,388.2 20.5,390.4" fill="rgba(122,47,53,0.37379355043172835)"/><polygon points="356.4,608.4 356.0,610.3 352.8,609.4 352.5,608.1 352.7,605.4 356.5,606.2" fill="rgba(115,116,116,0.5415612155012787)"/><polygon points="941.0,371.4 931.9,378.2 921.2,375.4 924.4,367.2 937.7,360.9" fill="rgba(185,184,181,0.39407628769055014)"/><polygon points="1043.5,643.6 1039.6,645.6 1035.3,643.5 1035.5,639.3 1041.6,638.8" fill="rgba(115,116,116,0.4365002408064902)"/><polygon points="168.5,518.2 163.7,525.7 151.6,520.5 155.7,508.4 163.6,510.6" fill="rgba(190,155,155,0.45281243812292815)"/><polygon points="643.1,727.5 641.8,730.2 636.7,729.4 635.3,726.7 639.6,725.3 641.9,724.6" fill="rgba(190,155,155,0.5017601527646184)"/><polygon points="418.9,622.0 402.3,631.2 390.1,619.0 409.1,610.0" fill="rgba(115,116,116,0.16616675158962607)"/><polygon points="316.1,787.4 307.7,791.7 299.0,791.7 296.4,783.1 304.0,771.7 309.4,778.8" fill="rgba(122,47,53,0.5044062466733158)"/><polygon points="224.0,295.9 216.5,302.2 210.1,295.0 217.8,291.7" fill="rgba(190,155,155,0.3931798639148474)"/><polygon points="514.6,723.8 508.9,729.3 499.8,724.0 502.6,718.1 511.7,717.0" fill="rgba(190,155,155,0.3000662201456726)"/><polygon points="214.5,455.9 199.0,465.0 192.3,452.2 209.5,442.2" fill="rgba(190,155,155,0.35151176400482653)"/><polygon points="180.6,434.2 175.0,439.0 165.2,437.5 164.5,432.3 170.2,429.5 176.1,430.1" fill="rgba(115,116,116,0.2512269091233611)"/><polygon points="361.5,301.1 355.9,304.8 349.3,302.4 343.6,297.2 351.8,294.3 358.7,292.1" fill="rgba(115,116,116,0.32917082238942386)"/><polygon points="767.4,257.1 760.5,259.5 755.1,260.1 753.1,253.9 757.9,251.9 763.5,253.3" fill="rgba(190,155,155,0.36787412943318487)"/><polygon points="24.1,322.2 21.6,324.9 17.8,323.6 18.7,321.6 19.6,319.0 23.8,319.8" fill="rgba(190,155,155,0.37645667580887676)"/><polygon points="967.8,763.6 963.1,766.1 958.6,762.0 959.1,758.7 963.7,758.7" fill="rgba(115,116,116,0.5101159791834653)"/><polygon points="554.8,215.1 551.6,217.0 547.0,214.9 549.6,210.5 555.1,211.4" fill="rgba(122,47,53,0.2840419301204383)"/><polygon points="961.3,560.5 951.2,569.8 943.1,558.3 952.6,551.1" fill="rgba(190,155,155,0.23652889024466278)"/><polygon points="664.0,142.3 658.5,143.8 654.4,140.3 659.3,137.0" fill="rgba(115,116,116,0.19814943348988892)"/><polygon points="851.7,251.0 850.3,254.1 843.8,251.7 840.7,247.8 846.5,243.7 850.9,246.9" fill="rgba(115,116,116,0.3262749567069113)"/><polygon points="676.2,74.9 671.6,77.7 663.4,77.0 661.4,72.0 668.5,69.0 675.6,70.5" fill="rgba(185,184,181,0.19833570368587972)"/><polygon points="813.7,502.2 804.4,506.2 798.8,500.2 806.0,495.2" fill="rgba(122,47,53,0.29215184826403856)"/><polygon points="800.6,132.7 789.6,140.5 780.7,132.3 782.0,125.1 793.5,123.8" fill="rgba(185,184,181,0.31620385007932783)"/><polygon points="917.7,577.0 910.9,579.1 904.7,579.0 899.1,572.7 908.0,567.5 916.0,568.6" fill="rgba(190,155,155,0.4023999323509634)"/><polygon points="693.3,349.3 682.6,358.1 676.6,353.0 669.6,344.4 680.9,341.5 686.2,343.1" fill="rgba(185,184,181,0.5376612296700478)"/><polygon points="385.1,146.5 373.9,153.3 370.5,144.7 381.9,136.4" fill="rgba(190,155,155,0.5297694613598287)"/><polygon points="581.9,319.8 572.8,325.7 562.8,320.0 565.4,312.8 580.0,313.3" fill="rgba(185,184,181,0.34252959987148646)"/><polygon points="297.4,44.6 289.5,50.0 279.0,50.8 279.1,39.3 287.7,35.8 293.0,37.4" fill="rgba(115,116,116,0.25769320860505107)"/><polygon points="108.1,567.3 95.4,569.8 90.9,560.7 100.9,553.2" fill="rgba(185,184,181,0.20252557288855316)"/><polygon points="136.6,698.7 131.3,705.1 123.2,698.2 131.8,693.1" fill="rgba(122,47,53,0.2763496308028698)"/><polygon points="239.8,736.0 238.7,737.7 236.6,737.1 234.8,734.5 237.2,734.2 239.1,734.4" fill="rgba(190,155,155,0.19892321111634376)"/><polygon points="656.7,744.9 648.3,746.4 643.5,742.4 650.1,739.2" fill="rgba(185,184,181,0.46447097942233084)"/><polygon points="73.0,696.7 70.0,699.4 65.7,694.9 71.1,693.2" fill="rgba(190,155,155,0.41450713643804193)"/><polygon points="539.3,801.7 536.3,803.1 534.4,801.3 534.6,799.1 537.8,798.7" fill="rgba(122,47,53,0.33997126653790477)"/><polygon points="150.5,140.1 140.9,144.5 132.2,138.9 142.3,134.6" fill="rgba(190,155,155,0.5320537265762687)"/><polygon points="728.0,8.5 713.9,14.3 704.4,12.3 699.7,3.5 707.7,-0.7 719.2,0.2" fill="rgba(115,116,116,0.2802948640100658)"/><polygon points="16.7,610.1 11.3,616.1 3.9,614.7 1.4,606.9 6.9,605.2 14.3,603.8" fill="rgba(122,47,53,0.3410607518069446)"/><polygon points="1015.8,481.4 1006.0,491.2 991.5,486.9 986.5,477.3 1000.8,467.3 1013.5,472.0" fill="rgba(190,155,155,0.5324304863251746)"/><polygon points="338.4,740.3 337.3,743.2 334.1,741.5 332.3,738.9 335.1,736.5 337.8,738.2" fill="rgba(190,155,155,0.22707560112699865)"/><polygon points="458.5,823.7 447.2,829.4 433.7,816.6 452.0,811.4" fill="rgba(185,184,181,0.41809626653790477)"/><polygon points="242.3,429.2 235.1,431.7 231.7,426.9 236.5,424.0" fill="rgba(122,47,53,0.20750151718035342)"/><polygon points="684.8,817.8 682.6,820.0 676.3,820.6 674.7,814.7 678.1,810.3 686.5,812.9" fill="rgba(122,47,53,0.39366911299526697)"/><polygon points="883.6,697.6 877.2,701.6 874.1,693.9 880.9,691.7" fill="rgba(115,116,116,0.16685225119814276)"/><polygon points="476.6,48.1 469.7,52.1 464.0,49.0 465.6,45.2 471.9,43.8" fill="rgba(115,116,116,0.16199513630941512)"/><polygon points="555.1,806.4 539.7,811.7 527.4,807.4 533.5,798.8 543.1,796.0" fill="rgba(190,155,155,0.36135054429993035)"/><polygon points="165.4,277.5 156.0,282.0 145.3,273.1 158.8,268.0" fill="rgba(190,155,155,0.3761872236058116)"/><polygon points="240.4,847.8 235.8,851.1 233.2,846.3 236.6,844.2" fill="rgba(190,155,155,0.46577192315831784)"/><polygon points="212.4,380.4 204.9,387.5 200.6,381.4 201.2,376.6 209.9,375.1" fill="rgba(185,184,181,0.2581886284425855)"/><polygon points="988.9,581.9 984.2,584.6 982.3,579.4 985.9,577.6" fill="rgba(190,155,155,0.27235427893698216)"/><polygon points="276.2,34.9 268.8,38.0 262.8,32.5 271.2,29.4" fill="rgba(185,184,181,0.1795347717963159)"/><polygon points="834.4,367.3 826.3,373.1 818.0,369.7 819.9,360.2 831.6,362.2" fill="rgba(190,155,155,0.19593053203076125)"/><polygon points="541.4,464.5 534.4,468.0 527.5,461.5 538.6,457.4" fill="rgba(185,184,181,0.41241323942318564)"/><polygon points="516.5,328.6 511.7,332.5 506.1,332.9 500.2,326.0 508.5,319.2 515.9,325.1" fill="rgba(190,155,155,0.4811125359870494)"/><polygon points="352.5,3.8 342.5,7.1 338.6,0.6 347.9,-4.0" fill="rgba(190,155,155,0.391621312443167)"/><polygon points="964.9,117.2 958.3,119.8 954.0,118.5 953.8,112.3 960.4,113.5" fill="rgba(185,184,181,0.2858265341632068)"/><polygon points="10.7,539.9 0.9,543.9 -7.5,535.9 4.5,528.4" fill="rgba(122,47,53,0.4018811610899866)"/><polygon points="310.5,616.4 300.3,624.9 294.0,611.2 304.0,606.4" fill="rgba(115,116,116,0.16360409077256918)"/><polygon points="552.7,613.7 542.0,619.0 535.2,611.4 545.6,606.5" fill="rgba(122,47,53,0.4391846194304526)"/><polygon points="255.9,714.0 254.1,718.3 247.6,716.8 246.2,712.7 250.4,708.7 256.4,710.5" fill="rgba(122,47,53,0.47216105874627834)"/><polygon points="1031.0,262.9 1027.4,264.1 1024.4,261.2 1028.5,260.2" fill="rgba(190,155,155,0.29647593120113014)"/><polygon points="451.9,519.8 440.0,524.1 437.4,514.0 447.3,510.0" fill="rgba(185,184,181,0.4539060266129673)"/><polygon points="339.1,246.7 334.3,250.9 327.5,249.0 330.8,240.2 338.8,239.8" fill="rgba(185,184,181,0.28471833117306233)"/><polygon points="1006.6,760.2 1000.6,762.8 996.9,757.2 1002.7,754.7" fill="rgba(115,116,116,0.3517297119274736)"/><polygon points="314.5,764.5 308.3,767.2 303.3,761.1 311.0,757.4" fill="rgba(115,116,116,0.5206948422268033)"/><polygon points="843.4,823.3 838.4,826.1 833.2,824.0 828.9,818.7 836.5,816.3 842.8,815.7" fill="rgba(115,116,116,0.29343441653996705)"/><polygon points="906.9,19.2 900.6,24.0 888.1,22.6 893.0,14.9 904.0,11.2" fill="rgba(122,47,53,0.46025143027305604)"/><polygon points="164.5,104.9 155.9,111.8 144.6,111.4 141.6,101.6 149.3,89.7 165.7,96.5" fill="rgba(122,47,53,0.30779887748882173)"/><polygon points="149.4,217.1 137.1,222.2 126.3,217.9 123.9,209.2 128.5,201.5 142.9,204.8" fill="rgba(185,184,181,0.2504011555016041)"/><polygon points="170.3,523.6 165.0,528.6 150.6,525.3 159.3,518.5 171.6,515.0" fill="rgba(185,184,181,0.26591962384060025)"/><polygon points="553.2,419.0 534.6,425.1 527.7,414.3 537.2,408.2" fill="rgba(115,116,116,0.36233403071761133)"/><polygon points="845.3,7.8 836.7,11.9 831.4,3.5 840.1,-4.1" fill="rgba(190,155,155,0.42327806981280447)"/><polygon points="704.7,792.5 699.3,794.7 696.5,793.9 694.1,791.0 698.0,788.5 702.7,788.6" fill="rgba(122,47,53,0.32478863647207623)"/><polygon points="527.2,566.8 523.7,567.5 520.1,568.1 520.3,565.5 522.8,562.0 525.4,564.1" fill="rgba(115,116,116,0.5142482019402087)"/><polygon points="763.3,329.9 754.5,335.5 745.8,330.1 749.5,321.4 758.8,323.7" fill="rgba(185,184,181,0.16178836630657314)"/><polygon points="575.4,211.6 565.4,214.0 558.0,210.7 557.2,202.5 575.6,200.1" fill="rgba(185,184,181,0.24080012677237392)"/><polygon points="725.7,329.6 722.7,335.2 716.6,331.7 717.6,326.8 723.7,327.1" fill="rgba(185,184,181,0.29338196240365505)"/><polygon points="446.2,103.4 433.0,108.9 424.6,107.5 423.3,101.5 426.0,93.4 440.8,94.4" fill="rgba(115,116,116,0.2218803346529603)"/><polygon points="553.4,44.5 544.7,47.7 539.0,45.5 531.6,37.3 542.2,32.9 556.5,32.5" fill="rgba(185,184,181,0.22017897799611091)"/><polygon points="440.9,343.4 436.6,348.9 430.0,346.4 428.6,341.8 432.5,337.1 437.1,339.8" fill="rgba(122,47,53,0.35452614691108464)"/><polygon points="778.0,804.2 760.7,811.9 754.2,801.0 767.2,789.9" fill="rgba(185,184,181,0.3897668498940766)"/><polygon points="356.6,699.1 352.9,700.5 350.0,699.3 351.3,697.2 354.6,696.8" fill="rgba(115,116,116,0.47710743773728614)"/><polygon points="348.7,438.5 341.5,442.8 331.6,440.3 337.1,432.8 346.5,430.7" fill="rgba(185,184,181,0.3380935882590711)"/><polygon points="540.3,669.2 531.8,676.3 528.5,669.3 531.1,665.5 537.5,663.0" fill="rgba(122,47,53,0.39790607834234837)"/><polygon points="975.0,515.6 972.4,519.6 963.4,520.7 962.9,514.5 968.9,507.7 975.3,510.9" fill="rgba(115,116,116,0.1801018146239221)"/><polygon points="923.9,592.5 912.6,594.2 905.2,587.8 919.0,581.4" fill="rgba(190,155,155,0.3847844769619405)"/><polygon points="163.9,606.9 155.6,612.6 140.7,604.8 143.9,595.9 158.8,596.7" fill="rgba(185,184,181,0.28936037732288244)"/><polygon points="946.2,106.0 941.6,108.7 933.5,109.3 932.9,104.4 937.4,98.2 943.2,101.7" fill="rgba(115,116,116,0.4850361513346434)"/><polygon points="956.4,490.3 946.9,496.6 936.0,489.5 941.2,482.2 949.2,481.0" fill="rgba(115,116,116,0.4136778037436306)"/><polygon points="1045.1,131.6 1042.5,133.2 1039.8,133.0 1036.8,130.0 1040.6,129.6 1044.5,129.4" fill="rgba(115,116,116,0.2622083654999733)"/><polygon points="74.1,400.2 68.9,401.8 64.0,401.2 64.4,394.6 71.9,392.5" fill="rgba(122,47,53,0.4233397660218179)"/><polygon points="912.0,624.6 902.3,628.8 895.0,622.7 896.6,616.2 905.5,617.0" fill="rgba(115,116,116,0.38226292146369817)"/><polygon points="564.1,745.1 561.7,747.0 557.6,745.1 558.8,741.7 562.4,741.6" fill="rgba(190,155,155,0.5253026421554386)"/><polygon points="40.7,324.0 37.3,326.7 31.1,327.2 31.2,322.7 33.7,320.1 39.3,320.8" fill="rgba(122,47,53,0.25921868573874235)"/><polygon points="942.7,165.0 937.2,168.7 934.4,167.0 932.0,162.8 935.4,160.9 940.7,161.2" fill="rgba(115,116,116,0.23469524117186666)"/><polygon points="358.8,337.0 351.6,341.0 345.8,340.3 347.5,330.5 355.0,330.6" fill="rgba(190,155,155,0.47525663798674944)"/><polygon points="84.9,421.8 79.1,424.4 69.6,421.4 73.1,413.8 81.5,415.9" fill="rgba(122,47,53,0.3281920629926026)"/><polygon points="917.6,771.7 911.9,775.9 902.8,771.4 914.0,766.3" fill="rgba(115,116,116,0.5259684711135925)"/><polygon points="824.1,583.3 812.1,585.3 802.3,578.6 813.0,571.2" fill="rgba(190,155,155,0.5167341160029173)"/><polygon points="839.3,374.1 836.9,375.9 834.6,374.7 833.4,372.3 835.7,370.9 839.4,370.6" fill="rgba(122,47,53,0.4035620924457908)"/><polygon points="119.5,800.5 118.5,801.8 114.5,802.2 114.7,799.4 116.5,796.6 120.3,798.2" fill="rgba(185,184,181,0.3322768037579954)"/><polygon points="897.4,129.1 894.0,131.7 888.5,131.0 888.3,127.5 890.1,124.6 896.3,123.9" fill="rgba(190,155,155,0.34277490781620146)"/><polygon points="616.3,31.4 598.9,35.4 588.5,20.0 605.1,19.1" fill="rgba(115,116,116,0.4646207354404033)"/><polygon points="21.7,69.9 14.3,73.7 8.4,66.4 16.6,64.6" fill="rgba(185,184,181,0.4544111024960875)"/><polygon points="1077.6,27.3 1072.8,32.7 1067.5,27.9 1067.2,23.2 1076.8,22.7" fill="rgba(115,116,116,0.49590987771749495)"/><polygon points="570.2,390.6 564.9,394.9 558.6,392.3 560.8,385.5 568.8,385.2" fill="rgba(185,184,181,0.520447923373431)"/><polygon points="1020.8,62.8 1018.9,64.4 1014.7,64.1 1013.5,61.8 1015.5,58.7 1020.5,59.5" fill="rgba(190,155,155,0.38018397031351925)"/><polygon points="604.1,121.9 600.0,122.2 597.6,119.6 601.6,119.2" fill="rgba(190,155,155,0.3120364078693092)"/><polygon points="457.6,310.6 451.8,315.0 445.5,310.8 446.3,305.2 454.1,302.1" fill="rgba(185,184,181,0.3850373528338969)"/><polygon points="181.8,630.5 179.2,632.3 177.6,630.0 179.8,628.5" fill="rgba(122,47,53,0.29477389747276905)"/><polygon points="969.5,825.8 953.4,828.5 948.8,821.4 960.5,814.7" fill="rgba(185,184,181,0.4529134317673743)"/><polygon points="789.8,750.8 789.3,752.6 786.6,750.9 785.2,749.4 788.1,748.2 790.2,748.5" fill="rgba(185,184,181,0.48637702962383633)"/><polygon points="605.7,248.1 602.7,250.0 599.1,247.1 603.8,245.6" fill="rgba(185,184,181,0.2423701915331185)"/><polygon points="500.1,474.7 497.6,477.5 495.4,475.5 492.9,473.2 496.0,470.9 498.6,472.2" fill="rgba(122,47,53,0.4660542558319867)"/><polygon points="1047.6,599.0 1038.5,604.9 1028.4,598.7 1033.4,591.6 1045.5,591.4" fill="rgba(185,184,181,0.41157481674104934)"/><polygon points="916.1,305.6 908.0,307.0 900.7,299.7 913.8,294.5" fill="rgba(190,155,155,0.16464750397950412)"/><polygon points="810.9,3.7 795.4,8.8 794.0,-1.1 801.1,-5.6" fill="rgba(185,184,181,0.16244609229266643)"/><polygon points="252.0,170.4 246.6,178.1 233.3,171.5 241.3,165.1 247.8,165.1" fill="rgba(190,155,155,0.4761291170865297)"/><polygon points="779.8,839.3 770.6,847.4 764.8,836.8 775.4,831.2" fill="rgba(122,47,53,0.3658036501519382)"/><polygon points="371.3,564.7 365.2,571.8 351.7,570.1 355.5,559.0 367.3,557.0" fill="rgba(115,116,116,0.25550101896747945)"/><polygon points="904.9,729.4 886.4,736.8 878.4,733.1 883.3,721.9 898.4,719.5" fill="rgba(190,155,155,0.19547395896166564)"/><polygon points="517.0,237.3 514.0,238.8 510.3,238.3 509.8,235.2 512.0,233.0 516.2,234.2" fill="rgba(115,116,116,0.454886464998126)"/><polygon points="724.2,117.9 715.3,128.4 704.9,114.8 719.6,111.2" fill="rgba(190,155,155,0.1832948223128915)"/><polygon points="829.9,224.0 816.0,229.4 810.1,218.4 824.6,211.6" fill="rgba(122,47,53,0.523283012714237)"/><polygon points="923.0,653.9 919.7,656.5 915.8,652.9 915.8,649.5 921.5,650.3" fill="rgba(122,47,53,0.44021996039897204)"/><polygon points="879.3,744.2 868.0,748.2 861.1,744.3 863.8,739.8 872.5,737.8" fill="rgba(115,116,116,0.5252439313940704)"/><polygon points="693.5,562.1 689.9,566.3 686.9,559.8 691.7,556.6" fill="rgba(115,116,116,0.35751720959320665)"/><polygon points="515.0,320.1 498.3,326.2 493.8,319.0 504.5,310.5" fill="rgba(115,116,116,0.22842082077637316)"/><polygon points="371.8,514.5 363.9,520.2 356.0,521.7 352.1,510.4 358.8,506.2 372.2,506.7" fill="rgba(115,116,116,0.3129702349565924)"/><polygon points="130.2,747.1 119.6,752.7 110.9,750.5 109.3,742.7 114.5,737.9 125.0,737.5" fill="rgba(185,184,181,0.4085878385603428)"/><polygon points="1034.6,370.1 1027.2,377.5 1016.4,370.8 1015.3,359.0 1031.4,359.7" fill="rgba(185,184,181,0.5178164163045585)"/><polygon points="835.8,395.9 830.7,402.9 820.1,394.6 818.6,388.3 832.7,388.7" fill="rgba(190,155,155,0.5042468321882189)"/><polygon points="968.2,731.3 965.6,733.7 959.5,732.7 960.0,729.0 960.4,725.4 965.4,728.2" fill="rgba(115,116,116,0.23736955154687167)"/><polygon points="484.2,540.1 473.3,545.3 465.6,540.1 469.3,533.1 477.6,533.3" fill="rgba(185,184,181,0.3795650607347488)"/><polygon points="584.8,352.4 574.4,353.5 565.7,345.1 579.0,343.1" fill="rgba(190,155,155,0.5166697121597826)"/><polygon points="985.1,656.0 980.8,658.8 976.9,656.7 977.6,651.9 982.9,651.8" fill="rgba(122,47,53,0.492714484538883)"/><polygon points="507.9,349.8 498.9,353.9 493.6,349.7 502.8,344.9" fill="rgba(115,116,116,0.5334232739545405)"/><polygon points="182.9,628.3 177.1,631.6 174.6,626.0 180.0,622.0" fill="rgba(115,116,116,0.31613214531913403)"/><polygon points="326.1,80.3 325.3,82.8 319.2,82.0 317.6,79.2 320.9,75.9 326.6,76.3" fill="rgba(190,155,155,0.40122104384005075)"/><polygon points="550.5,699.3 538.0,703.2 531.6,694.6 541.4,690.4" fill="rgba(115,116,116,0.23324415482580663)"/><polygon points="776.3,486.2 773.0,491.1 761.9,491.5 754.2,482.3 763.0,475.2 776.8,477.3" fill="rgba(122,47,53,0.5541383880563081)"/><polygon points="37.0,562.4 32.3,564.6 28.3,561.7 26.6,559.9 29.1,556.9 34.2,557.6" fill="rgba(185,184,181,0.2730974749103189)"/><polygon points="1074.1,345.8 1067.2,351.4 1056.4,347.1 1056.1,339.9 1059.1,335.0 1067.3,339.6" fill="rgba(185,184,181,0.3203543007746339)"/><polygon points="518.4,611.6 512.0,617.3 509.2,609.5 516.0,605.5" fill="rgba(185,184,181,0.2915142677165568)"/><polygon points="586.5,285.2 584.5,287.9 580.8,285.6 582.0,282.5 587.2,282.4" fill="rgba(185,184,181,0.2131074807047844)"/><polygon points="275.5,516.5 271.6,518.7 266.2,517.8 266.0,514.8 267.7,510.3 272.2,513.2" fill="rgba(122,47,53,0.4461113187856972)"/><polygon points="218.5,125.7 216.6,127.6 213.1,128.0 211.0,123.7 214.8,122.2 218.6,121.8" fill="rgba(190,155,155,0.323519112020731)"/><polygon points="286.9,226.6 282.2,229.8 278.6,225.4 284.3,222.9" fill="rgba(115,116,116,0.27404817486181854)"/><polygon points="552.1,756.0 545.8,761.0 538.4,758.9 541.2,751.2 548.5,753.1" fill="rgba(190,155,155,0.3439752729982138)"/><polygon points="121.2,834.6 115.9,838.0 109.8,835.3 110.6,831.7 120.8,829.3" fill="rgba(185,184,181,0.44689866913482545)"/><polygon points="18.1,512.4 9.0,517.6 2.9,515.5 5.5,510.0 13.5,506.6" fill="rgba(185,184,181,0.3324021906964481)"/><polygon points="75.3,252.1 68.8,256.4 63.9,250.0 73.2,247.1" fill="rgba(122,47,53,0.5537428017146886)"/><polygon points="100.0,194.1 93.9,196.0 91.7,191.4 95.7,190.1" fill="rgba(115,116,116,0.47219107462093235)"/><polygon points="117.4,848.0 112.6,854.1 101.8,849.9 94.3,842.5 103.6,836.4 112.0,840.7" fill="rgba(185,184,181,0.530759372599423)"/><polygon points="829.3,78.6 814.4,80.3 805.0,74.1 817.7,69.9" fill="rgba(185,184,181,0.21781821496784687)"/><polygon points="170.7,668.0 164.8,674.2 154.4,671.1 159.2,659.7 168.2,661.9" fill="rgba(185,184,181,0.17375447707250716)"/><polygon points="567.4,766.6 556.2,773.3 550.4,763.7 560.6,759.7" fill="rgba(190,155,155,0.2612912265025079)"/><polygon points="129.2,460.6 124.3,464.8 118.2,462.9 120.8,455.7 125.7,455.2" fill="rgba(122,47,53,0.23534817997366192)"/><polygon points="246.0,367.7 242.3,369.6 240.8,366.6 243.6,364.6" fill="rgba(185,184,181,0.4131730337068439)"/><polygon points="435.5,390.6 425.1,392.0 420.4,384.9 428.0,383.1" fill="rgba(190,155,155,0.40012019205838445)"/><polygon points="200.3,300.4 196.7,303.6 195.1,299.1 198.5,296.8" fill="rgba(190,155,155,0.3014588637650013)"/><polygon points="441.0,33.9 425.8,40.4 411.0,29.1 431.3,20.1" fill="rgba(190,155,155,0.42638684645295144)"/><polygon points="240.9,812.0 237.5,815.9 233.6,812.7 233.1,811.2 234.1,807.1 240.7,807.3" fill="rgba(115,116,116,0.496655966565013)"/><polygon points="371.1,742.3 368.1,744.3 365.5,743.3 365.4,740.8 366.5,739.4 370.1,739.8" fill="rgba(190,155,155,0.27264168350026013)"/><polygon points="514.1,698.5 511.3,702.4 504.2,700.5 506.4,695.0 512.2,693.7" fill="rgba(115,116,116,0.22476021204143765)"/><polygon points="66.1,492.0 60.2,494.3 54.4,491.4 51.9,486.7 55.1,484.2 62.6,483.2" fill="rgba(185,184,181,0.4417857914604246)"/><polygon points="995.2,303.0 983.4,307.2 973.8,302.6 986.3,293.7" fill="rgba(185,184,181,0.31973299108445646)"/><polygon points="456.5,667.6 454.2,672.0 448.1,668.0 451.4,664.8 456.8,664.0" fill="rgba(185,184,181,0.4411576014384627)"/><polygon points="709.6,460.7 707.1,461.9 704.7,461.5 703.2,459.7 704.8,457.8 707.6,459.1" fill="rgba(185,184,181,0.394714530967176)"/><polygon points="171.3,94.2 168.5,97.0 164.2,95.2 166.2,91.8 168.9,92.6" fill="rgba(185,184,181,0.287958978433162)"/><polygon points="859.1,77.5 854.1,79.8 848.6,76.7 855.6,71.2" fill="rgba(115,116,116,0.4673954726569355)"/><polygon points="644.4,824.1 637.1,828.5 631.9,824.4 632.8,820.5 634.6,816.9 639.8,818.4" fill="rgba(122,47,53,0.40174999035894876)"/><polygon points="563.4,587.7 558.8,589.8 550.1,588.6 545.3,580.2 553.8,577.3 563.2,576.9" fill="rgba(185,184,181,0.21333963269367814)"/><polygon points="735.7,68.4 731.4,70.5 729.0,67.2 732.7,65.1" fill="rgba(185,184,181,0.16599619010463357)"/><polygon points="129.6,654.4 126.8,655.6 123.3,654.7 124.8,651.4 128.3,650.9" fill="rgba(190,155,155,0.29753291154280304)"/><polygon points="444.4,176.9 433.0,187.6 424.5,170.6 437.5,167.9" fill="rgba(190,155,155,0.5354398496821523)"/><polygon points="806.4,160.9 800.7,163.6 793.0,163.3 792.5,157.8 796.5,156.4 801.9,155.9" fill="rgba(115,116,116,0.20467599615454674)"/><polygon points="712.3,220.0 709.6,222.6 704.0,220.7 703.7,217.7 707.2,213.2 715.1,214.8" fill="rgba(190,155,155,0.47645438577979804)"/><polygon points="1027.5,612.4 1023.7,615.5 1019.3,613.4 1016.0,610.7 1020.0,606.5 1028.1,606.5" fill="rgba(185,184,181,0.312534275688231)"/><polygon points="456.2,703.5 447.3,710.9 442.3,701.6 451.5,698.7" fill="rgba(190,155,155,0.5200546380504966)"/><polygon points="733.6,242.9 724.5,249.9 714.4,239.4 727.9,236.2" fill="rgba(190,155,155,0.39811066439375287)"/><polygon points="147.6,16.4 144.3,20.1 135.9,15.7 137.3,10.5 145.7,8.1" fill="rgba(190,155,155,0.18926510684192183)"/><polygon points="228.0,210.4 221.3,220.0 211.4,218.4 207.2,208.0 215.8,198.9 223.7,202.0" fill="rgba(122,47,53,0.28190893702208997)"/><polygon points="18.0,790.3 14.2,795.1 5.6,791.2 6.6,785.0 15.8,786.3" fill="rgba(115,116,116,0.37997134033590557)"/><polygon points="542.8,303.8 535.8,306.2 528.4,304.8 530.2,297.9 539.6,297.5" fill="rgba(185,184,181,0.4082088239863515)"/><polygon points="238.8,387.1 237.8,392.5 227.2,390.9 226.6,383.0 229.2,380.1 237.9,380.6" fill="rgba(122,47,53,0.45358125273138283)"/><polygon points="163.4,777.1 158.8,777.8 154.3,777.0 155.5,771.3 162.0,771.9" fill="rgba(122,47,53,0.535581184681505)"/><polygon points="1100.3,649.2 1092.9,654.7 1081.0,656.8 1085.2,648.2 1091.8,636.8 1104.9,642.3" fill="rgba(115,116,116,0.2812139104492962)"/><polygon points="240.2,480.3 229.4,484.3 220.8,477.1 222.1,470.9 235.3,467.7" fill="rgba(122,47,53,0.5409027815237641)"/><polygon points="128.5,494.4 118.1,499.9 107.4,498.6 101.8,484.1 109.8,481.4 122.5,482.8" fill="rgba(185,184,181,0.5258943763934076)"/><polygon points="700.9,81.6 697.0,82.6 692.7,82.2 694.7,77.5 699.6,77.9" fill="rgba(115,116,116,0.2529292663000524)"/><polygon points="535.6,430.6 531.1,436.0 523.7,429.5 523.6,420.0 531.7,420.4" fill="rgba(122,47,53,0.41585826048627494)"/><polygon points="472.7,189.7 467.4,195.2 455.4,191.1 454.6,184.6 459.1,177.4 466.9,183.5" fill="rgba(185,184,181,0.4423277824558318)"/><polygon points="445.4,797.3 435.1,806.5 428.5,792.6 439.6,789.4" fill="rgba(190,155,155,0.47123347282409667)"/><polygon points="934.2,660.5 927.8,667.8 916.9,666.9 916.8,655.1 920.8,650.5 928.4,651.8" fill="rgba(190,155,155,0.3841770534776151)"/><polygon points="1004.9,356.5 1003.2,358.3 999.5,358.3 1000.4,355.7 1001.2,354.1 1004.3,354.9" fill="rgba(115,116,116,0.5229565488547087)"/><polygon points="609.6,382.2 601.3,385.6 595.4,378.8 605.7,375.8" fill="rgba(190,155,155,0.3100103374943137)"/><polygon points="634.6,614.9 624.6,620.7 610.9,620.6 605.1,609.0 616.5,603.9 626.4,604.4" fill="rgba(122,47,53,0.48456584386527546)"/><polygon points="403.5,423.5 393.0,427.9 386.9,423.8 386.5,414.4 400.2,411.7" fill="rgba(185,184,181,0.38396959252655505)"/><polygon points="242.0,204.6 230.6,206.7 226.4,199.3 235.9,191.3" fill="rgba(122,47,53,0.37722073126584293)"/><polygon points="568.5,518.3 562.6,518.9 557.4,518.2 558.7,514.4 559.7,512.1 564.8,513.9" fill="rgba(190,155,155,0.3780542866699398)"/><polygon points="231.8,761.9 224.8,764.9 222.2,759.5 227.5,755.5" fill="rgba(190,155,155,0.5143174197897316)"/><polygon points="728.4,487.9 721.5,492.3 714.6,489.5 717.3,484.3 724.4,481.3" fill="rgba(190,155,155,0.27932972511276605)"/><polygon points="1058.7,633.8 1053.8,637.5 1049.2,633.4 1055.9,631.1" fill="rgba(115,116,116,0.4730842154845596)"/><polygon points="1012.8,15.3 1007.2,22.5 998.7,20.0 997.7,12.0 1002.4,6.9 1015.8,7.7" fill="rgba(122,47,53,0.4905178759619594)"/><polygon points="646.1,396.7 633.9,409.1 625.9,401.0 623.1,393.9 627.8,390.1 642.9,386.1" fill="rgba(122,47,53,0.5246199548617005)"/><polygon points="1099.7,775.0 1094.5,778.7 1084.9,781.0 1083.7,770.0 1086.3,766.1 1099.6,764.7" fill="rgba(115,116,116,0.3912306994572282)"/><polygon points="208.8,655.0 202.8,659.3 196.4,650.3 203.4,645.5" fill="rgba(185,184,181,0.25031156599521637)"/><polygon points="17.2,157.6 13.6,161.4 2.7,163.1 -2.8,154.8 6.5,146.1 20.8,148.8" fill="rgba(185,184,181,0.5378673896566034)"/><polygon points="408.3,559.0 406.0,560.0 401.2,559.1 398.4,556.4 402.4,553.5 407.5,553.6" fill="rgba(185,184,181,0.2664051616936922)"/><polygon points="307.0,580.0 302.5,587.8 291.7,580.5 294.6,575.6 302.9,575.4" fill="rgba(185,184,181,0.16418035360053182)"/><polygon points="453.5,275.6 450.4,278.2 447.0,273.9 450.7,272.5" fill="rgba(185,184,181,0.17723748715594412)"/><polygon points="757.2,86.8 748.8,90.2 743.0,88.0 746.6,81.0 754.0,77.6" fill="rgba(185,184,181,0.504133236259222)"/><polygon points="742.3,81.7 734.2,86.4 729.9,84.5 725.0,80.4 731.7,76.5 736.3,77.4" fill="rgba(122,47,53,0.23882377970963717)"/><polygon points="833.7,265.0 828.1,269.3 823.3,266.4 818.9,263.1 824.4,258.4 831.6,259.8" fill="rgba(185,184,181,0.3829822074063123)"/><polygon points="463.8,310.5 462.6,318.2 451.1,316.1 450.2,309.4 451.9,300.3 463.6,306.6" fill="rgba(115,116,116,0.3728654361702502)"/><polygon points="600.7,368.2 595.9,370.6 592.9,367.0 597.7,365.0" fill="rgba(185,184,181,0.27954900939017535)"/><polygon points="156.5,563.7 149.7,569.5 138.6,567.0 143.2,558.5 151.6,555.7" fill="rgba(122,47,53,0.21095063764601946)"/><rect width="1100" height="850" fill="#1c1e23" filter="url(#g1i)" opacity=".1"/></svg>