<svg xmlns="http://www.w3.org/2000/svg" viewBox="0 0 960 1200" width="960" height="1200" preserveAspectRatio="xMidYMid slice" role="img">
<defs><radialGradient id="bg29" cx="68%" cy="26%" r="86%"><stop offset="0%" stop-color="#fbf9f7"/><stop offset="54%" stop-color="#f7f2ee"/><stop offset="100%" stop-color="#d5c9c4"/></radialGradient><linearGradient id="fm2a" x1="73.47%" y1="5.85%" x2="26.53%" y2="94.15%"><stop offset="0%" stop-color="#d435NaN"/><stop offset="36%" stop-color="#8d726c"/><stop offset="68%" stop-color="#251dNaN"/><stop offset="100%" stop-color="#1e18NaN"/></linearGradient><radialGradient id="sd2b" cx="50%" cy="50%" r="50%"><stop offset="0%" stop-color="#2c2321" stop-opacity="0.4"/><stop offset="100%" stop-color="#2c2321" stop-opacity="0"/></radialGradient><filter id="bl2d" x="-25%" y="-25%" width="150%" height="150%"><feGaussianBlur stdDeviation="31.2"/></filter><filter id="gr2c" x="0" y="0" width="100%" height="100%">
    <feTurbulence type="fractalNoise" baseFrequency="1" numOctaves="3" stitchTiles="stitch" seed="7"/>
    <feColorMatrix type="saturate" values="0"/>
    <feComponentTransfer><feFuncA type="linear" slope="0.24"/></feComponentTransfer>
  </filter></defs>
<rect width="960" height="1200" fill="url(#bg29)"/>
<path d="M0 720.0H960" stroke="rgba(44,35,33,0.08)" stroke-width="1"/>
<rect y="720.0" width="960" height="480.0" fill="rgba(44,35,33,0.05)"/>
<ellipse cx="409.4" cy="880.0" rx="498.7" ry="33.6" fill="url(#sd2b)" filter="url(#bl2d)"/>
<path d="M719.7 390.7 C 722.5 400.5, 715.1 413.4, 736.3 449.0 C 757.6 484.6, 839.8 544.4, 847.2 604.3 C 854.5 664.1, 803.8 762.8, 780.7 808.1 C 757.6 853.4, 720.6 864.7, 708.6 876.0 L442.7 876.0 C 430.6 864.7, 393.7 853.4, 370.6 808.1 C 347.5 762.8, 296.7 664.1, 304.1 604.3 C 311.5 544.4, 393.7 484.6, 414.9 449.0 C 436.2 413.4, 428.8 400.5, 431.6 390.7 Z" fill="url(#fm2a)"/>
<ellipse cx="575.6" cy="390.7" rx="152.7" ry="36.7" fill="#1612NaN" opacity="0.72"/>
<path d="M422.9 390.7 A 152.7 36.7 0 0 1 728.4 390.7" fill="none" stroke="rgba(255,255,255,0.42)" stroke-width="1.6"/>
<path d="M431.6 390.7 C 428.8 400.5, 436.2 413.4, 414.9 449.0 C 393.7 484.6, 311.5 544.4, 304.1 604.3 C 296.7 664.1, 347.5 762.8, 370.6 808.1 C 393.7 853.4, 430.6 864.7, 442.7 876.0" fill="none" stroke="rgba(255,255,255,0.42)" stroke-width="2" stroke-linecap="round"/>
<rect width="960" height="1200" filter="url(#gr2c)" opacity=".4"/>
</svg>